<svg xmlns="http://www.w3.org/2000/svg" xmlns:xlink="http://www.w3.org/1999/xlink" width="790" height="277.1"><rect width="790" height="277.1" rx="5" ry="5" class="a"/><svg y="0%" x="0%"><circle cx="20" cy="20" r="6" fill="#ff5f58"/><circle cx="40" cy="20" r="6" fill="#ffbd2e"/><circle cx="60" cy="20" r="6" fill="#18c132"/></svg><svg height="217.1" viewBox="0 0 75 21.71" width="750" x="15" xmlns="http://www.w3.org/2000/svg" xmlns:xlink="http://www.w3.org/1999/xlink" y="50"><style>@keyframes l{0%{transform:translateX(-600px)}4.3%{transform:translateX(-675px)}6.7%{transform:translateX(-825px)}10.8%{transform:translateX(-1050px)}11%{transform:translateX(-1350px)}17.9%{transform:translateX(-1500px)}23.3%{transform:translateX(-1650px)}28.2%{transform:translateX(-1950px)}32.1%{transform:translateX(-2475px)}42%{transform:translateX(-2775px)}50%{transform:translateX(-3225px)}60.6%{transform:translateX(-3525px)}69.6%{transform:translateX(-3600px)}74.1%{transform:translateX(-3675px)}to{transform:translateX(-3750px)}}.a{fill:#282d35}.f{fill:#b9c0cb}.g{fill:#a8cc8c}.h{fill:#b9c0cb;font-weight:700}.i{fill:#66c2cd}</style><g font-size="1.67" font-family="Monaco,Consolas,Menlo,'Bitstream Vera Sans Mono','Powerline Symbols',monospace"><defs><symbol id="1"><text y="1.67" class="f">$</text><text x="2.004" y="1.67" class="f">youtube-dl-interactive</text><text x="25.05" y="1.67" class="f">https://www.youtube.com/watch?v=CjLHuhOTnaI</text></symbol><symbol id="2"><text y="1.67" class="g">?</text><text x="2.004" y="1.67" class="h">Select</text><text x="9.018" y="1.67" class="h">resolution:</text><text x="21.042" y="1.67" class="f">(Use</text><text x="26.052" y="1.67" class="f">arrow</text><text x="32.064" y="1.67" class="f">keys)</text></symbol><symbol id="3"><text y="1.67" class="i">❯</text><text x="2.004" y="1.67" class="i">audio</text><text x="8.016" y="1.67" class="i">only</text></symbol><symbol id="4"><text x="2.004" y="1.67" class="f">640x360</text></symbol><symbol id="5"><text x="2.004" y="1.67" class="f">1280x720</text></symbol><symbol id="6"><text y="1.67" class="g">?</text><text x="2.004" y="1.67" class="h">Select</text><text x="9.018" y="1.67" class="h">resolution:</text></symbol><symbol id="7"><text x="2.004" y="1.67" class="f">audio</text><text x="8.016" y="1.67" class="f">only</text></symbol><symbol id="8"><text y="1.67" class="i">❯</text><text x="2.004" y="1.67" class="i">640x360</text></symbol><symbol id="9"><text y="1.67" class="g">?</text><text x="2.004" y="1.67" class="h">Select</text><text x="9.018" y="1.67" class="h">resolution:</text><text x="21.042" y="1.67" class="i">640x360</text></symbol><symbol id="10"><text y="1.67" class="g">?</text><text x="2.004" y="1.67" class="h">Select</text><text x="9.018" y="1.67" class="h">extension:</text><text x="20.04" y="1.67" class="f">(Use</text><text x="25.05" y="1.67" class="f">arrow</text><text x="31.062" y="1.67" class="f">keys)</text></symbol><symbol id="11"><text y="1.67" class="i">❯</text><text x="2.004" y="1.67" class="i">mp4</text></symbol><symbol id="12"><text x="2.004" y="1.67" class="f">webm</text></symbol><symbol id="13"><text y="1.67" class="g">?</text><text x="2.004" y="1.67" class="h">Select</text><text x="9.018" y="1.67" class="h">extension:</text></symbol><symbol id="14"><text x="2.004" y="1.67" class="f">mp4</text></symbol><symbol id="15"><text y="1.67" class="i">❯</text><text x="2.004" y="1.67" class="i">webm</text></symbol><symbol id="16"><text y="1.67" class="g">?</text><text x="2.004" y="1.67" class="h">Select</text><text x="9.018" y="1.67" class="h">extension:</text><text x="20.04" y="1.67" class="i">webm</text></symbol><symbol id="17"><text y="1.67" class="g">?</text><text x="2.004" y="1.67" class="h">Include</text><text x="10.02" y="1.67" class="h">subtitles?</text><text x="21.042" y="1.67" class="f">(Y/n)</text></symbol><symbol id="18"><text y="1.67" class="g">?</text><text x="2.004" y="1.67" class="h">Include</text><text x="10.02" y="1.67" class="h">subtitles?</text><text x="21.042" y="1.67" class="i">Yes</text></symbol><symbol id="19"><text y="1.67" class="g">✔</text><text x="2.004" y="1.67" class="f">OK,</text><text x="6.012" y="1.67" class="f">we</text><text x="9.018" y="1.67" class="f">will</text><text x="14.028" y="1.67" class="f">download</text><text x="23.046" y="1.67" class="f">format</text><text x="30.06" y="1.67" class="f">with</text><text x="35.07" y="1.67" class="f">number</text><text x="42.084" y="1.67" class="f">43</text></symbol><symbol id="20"><text y="1.67" class="f">[youtube]</text><text x="10.02" y="1.67" class="f">CjLHuhOTnaI:</text><text x="23.046" y="1.67" class="f">Downloading</text><text x="35.07" y="1.67" class="f">webpage</text></symbol><symbol id="21"><text y="1.67" class="f">[youtube]</text><text x="10.02" y="1.67" class="f">CjLHuhOTnaI:</text><text x="23.046" y="1.67" class="f">Downloading</text><text x="35.07" y="1.67" class="f">video</text><text x="41.082" y="1.67" class="f">info</text><text x="46.092" y="1.67" class="f">webpage</text></symbol><symbol id="a"><path fill="transparent" d="M0 0h75v11H0z"/></symbol><symbol id="b"><path fill="#6f7683" d="M0 0h1.102v2.171H0z"/></symbol></defs><path class="a" d="M0 0h75v21.71H0z"/><g style="animation-duration:15.451402s;animation-iteration-count:infinite;animation-name:l;animation-timing-function:steps(1,end)"><svg width="3825"><svg><use xlink:href="#a"/><use xlink:href="#b" x="7.996"/><text y="1.67" class="f">$</text><text x="2.004" y="1.67" class="f">youtub</text></svg><svg x="75"><use xlink:href="#a"/><use xlink:href="#b" x="38.996"/><text y="1.67" class="f">$</text><text x="2.004" y="1.67" class="f">youtube-dl-interactive</text><text x="25.05" y="1.67" class="f">https://www.yo</text></svg><svg x="150"><use xlink:href="#a"/><use xlink:href="#b" x="49.996"/><text y="1.67" class="f">$</text><text x="2.004" y="1.67" class="f">youtube-dl-interactive</text><text x="25.05" y="1.67" class="f">https://www.youtube.com/w</text></svg><svg x="225"><use xlink:href="#a"/><use xlink:href="#b" x="53.996"/><text y="1.67" class="f">$</text><text x="2.004" y="1.67" class="f">youtube-dl-interactive</text><text x="25.05" y="1.67" class="f">https://www.youtube.com/watch</text></svg><svg x="300"><use xlink:href="#a"/><use xlink:href="#b" x="56.996"/><text y="1.67" class="f">$</text><text x="2.004" y="1.67" class="f">youtube-dl-interactive</text><text x="25.05" y="1.67" class="f">https://www.youtube.com/watch?v=</text></svg><svg x="375"><use xlink:href="#a"/><use xlink:href="#b" x="59.996"/><text y="1.67" class="f">$</text><text x="2.004" y="1.67" class="f">youtube-dl-interactive</text><text x="25.05" y="1.67" class="f">https://www.youtube.com/watch?v=CjL</text></svg><svg x="450"><use xlink:href="#a"/><use xlink:href="#b" x="62.996"/><text y="1.67" class="f">$</text><text x="2.004" y="1.67" class="f">youtube-dl-interactive</text><text x="25.05" y="1.67" class="f">https://www.youtube.com/watch?v=CjLHuh</text></svg><svg x="525"><use xlink:href="#a"/><use xlink:href="#b" x="64.996"/><text y="1.67" class="f">$</text><text x="2.004" y="1.67" class="f">youtube-dl-interactive</text><text x="25.05" y="1.67" class="f">https://www.youtube.com/watch?v=CjLHuhOT</text></svg><svg x="600"><use xlink:href="#a"/><use xlink:href="#b" x="67.996"/><use xlink:href="#1"/></svg><svg x="675"><use xlink:href="#a"/><use xlink:href="#b" x="-.004" y="2.146"/><use xlink:href="#1"/></svg><svg x="750"><use xlink:href="#a"/><use xlink:href="#1"/></svg><svg x="825"><use xlink:href="#a"/><use xlink:href="#1"/><text y="3.841" class="i">⠋</text><text x="2.004" y="3.841" class="f">Loading</text><text x="10.02" y="3.841" class="f">formats</text></svg><svg x="900"><use xlink:href="#a"/><use xlink:href="#1"/></svg><svg x="975"><use xlink:href="#a"/><use xlink:href="#1"/></svg><svg x="1050"><use xlink:href="#a"/><use xlink:href="#b" x="-.004" y="2.146"/><use xlink:href="#1"/></svg><svg x="1125"><use xlink:href="#a"/><use xlink:href="#1"/></svg><svg x="1200"><use xlink:href="#a"/><use xlink:href="#1"/><use xlink:href="#2" y="2.171"/><use xlink:href="#3" y="4.342"/><use xlink:href="#4" y="6.513"/><use xlink:href="#5" y="8.684"/></svg><svg x="1275"><use xlink:href="#a"/><use xlink:href="#1"/><use xlink:href="#2" y="2.171"/><use xlink:href="#3" y="4.342"/><use xlink:href="#4" y="6.513"/><use xlink:href="#5" y="8.684"/></svg><svg x="1350"><use xlink:href="#a"/><use xlink:href="#1"/><use xlink:href="#2" y="2.171"/><use xlink:href="#3" y="4.342"/><use xlink:href="#4" y="6.513"/><use xlink:href="#5" y="8.684"/></svg><svg x="1425"><use xlink:href="#a"/><use xlink:href="#1"/></svg><svg x="1500"><use xlink:href="#a"/><use xlink:href="#1"/><use xlink:href="#6" y="2.171"/><use xlink:href="#7" y="4.342"/><use xlink:href="#8" y="6.513"/><use xlink:href="#5" y="8.684"/></svg><svg x="1575"><use xlink:href="#a"/><use xlink:href="#1"/></svg><svg x="1650"><use xlink:href="#a"/><use xlink:href="#1"/><use xlink:href="#6" y="2.171"/><use xlink:href="#7" y="4.342"/><use xlink:href="#4" y="6.513"/><text y="10.354" class="i">❯</text><text x="2.004" y="10.354" class="i">1280x720</text></svg><svg x="1725"><use xlink:href="#a"/><use xlink:href="#1"/></svg><svg x="1800"><use xlink:href="#a"/><use xlink:href="#1"/><use xlink:href="#6" y="2.171"/><use xlink:href="#7" y="4.342"/><use xlink:href="#8" y="6.513"/><use xlink:href="#5" y="8.684"/></svg><svg x="1875"><use xlink:href="#a"/><use xlink:href="#1"/><use xlink:href="#6" y="2.171"/><use xlink:href="#7" y="4.342"/><use xlink:href="#8" y="6.513"/><use xlink:href="#5" y="8.684"/></svg><svg x="1950"><use xlink:href="#a"/><use xlink:href="#1"/><use xlink:href="#6" y="2.171"/><use xlink:href="#7" y="4.342"/><use xlink:href="#8" y="6.513"/><use xlink:href="#5" y="8.684"/></svg><svg x="2025"><use xlink:href="#a"/><use xlink:href="#1"/></svg><svg x="2100"><use xlink:href="#a"/><use xlink:href="#1"/><use xlink:href="#9" y="2.171"/></svg><svg x="2175"><use xlink:href="#a"/><use xlink:href="#1"/><use xlink:href="#9" y="2.171"/></svg><svg x="2250"><use xlink:href="#a"/><use xlink:href="#b" x="-.004" y="4.317"/><use xlink:href="#1"/><use xlink:href="#9" y="2.171"/></svg><svg x="2325"><use xlink:href="#a"/><use xlink:href="#1"/><use xlink:href="#9" y="2.171"/></svg><svg x="2400"><use xlink:href="#a"/><use xlink:href="#1"/><use xlink:href="#9" y="2.171"/><use xlink:href="#10" y="4.342"/><use xlink:href="#11" y="6.513"/><use xlink:href="#12" y="8.684"/></svg><svg x="2475"><use xlink:href="#a"/><use xlink:href="#1"/><use xlink:href="#9" y="2.171"/><use xlink:href="#10" y="4.342"/><use xlink:href="#11" y="6.513"/><use xlink:href="#12" y="8.684"/></svg><svg x="2550"><use xlink:href="#a"/><use xlink:href="#1"/><use xlink:href="#9" y="2.171"/></svg><svg x="2625"><use xlink:href="#a"/><use xlink:href="#1"/><use xlink:href="#9" y="2.171"/><use xlink:href="#13" y="4.342"/><use xlink:href="#14" y="6.513"/><use xlink:href="#15" y="8.684"/></svg><svg x="2700"><use xlink:href="#a"/><use xlink:href="#1"/><use xlink:href="#9" y="2.171"/><use xlink:href="#13" y="4.342"/><use xlink:href="#14" y="6.513"/><use xlink:href="#15" y="8.684"/></svg><svg x="2775"><use xlink:href="#a"/><use xlink:href="#1"/><use xlink:href="#9" y="2.171"/><use xlink:href="#13" y="4.342"/><use xlink:href="#14" y="6.513"/><use xlink:href="#15" y="8.684"/></svg><svg x="2850"><use xlink:href="#a"/><use xlink:href="#1"/><use xlink:href="#9" y="2.171"/></svg><svg x="2925"><use xlink:href="#a"/><use xlink:href="#1"/><use xlink:href="#9" y="2.171"/><use xlink:href="#16" y="4.342"/></svg><svg x="3000"><use xlink:href="#a"/><use xlink:href="#b" x="-.004" y="6.488"/><use xlink:href="#1"/><use xlink:href="#9" y="2.171"/><use xlink:href="#16" y="4.342"/></svg><svg x="3075"><use xlink:href="#a"/><use xlink:href="#b" x="26.996" y="6.488"/><use xlink:href="#1"/><use xlink:href="#9" y="2.171"/><use xlink:href="#16" y="4.342"/><use xlink:href="#17" y="6.513"/></svg><svg x="3150"><use xlink:href="#a"/><use xlink:href="#b" x="-.004" y="6.488"/><use xlink:href="#1"/><use xlink:href="#9" y="2.171"/><use xlink:href="#16" y="4.342"/><use xlink:href="#17" y="6.513"/></svg><svg x="3225"><use xlink:href="#a"/><use xlink:href="#b" x="26.996" y="6.488"/><use xlink:href="#1"/><use xlink:href="#9" y="2.171"/><use xlink:href="#16" y="4.342"/><use xlink:href="#17" y="6.513"/></svg><svg x="3300"><use xlink:href="#a"/><use xlink:href="#b" x="-.004" y="6.488"/><use xlink:href="#1"/><use xlink:href="#9" y="2.171"/><use xlink:href="#16" y="4.342"/></svg><svg x="3375"><use xlink:href="#a"/><use xlink:href="#b" x="23.996" y="6.488"/><use xlink:href="#1"/><use xlink:href="#9" y="2.171"/><use xlink:href="#16" y="4.342"/><use xlink:href="#18" y="6.513"/></svg><svg x="3450"><use xlink:href="#a"/><use xlink:href="#b" x="-.004" y="8.659"/><use xlink:href="#1"/><use xlink:href="#9" y="2.171"/><use xlink:href="#16" y="4.342"/><use xlink:href="#18" y="6.513"/></svg><svg x="3525"><use xlink:href="#a"/><use xlink:href="#b" x="-.004" y="10.83"/><use xlink:href="#1"/><use xlink:href="#9" y="2.171"/><use xlink:href="#16" y="4.342"/><use xlink:href="#18" y="6.513"/><use xlink:href="#19" y="8.684"/></svg><svg x="3600"><use xlink:href="#a"/><use xlink:href="#b" x="-.004" y="13.001"/><use xlink:href="#1"/><use xlink:href="#9" y="2.171"/><use xlink:href="#16" y="4.342"/><use xlink:href="#18" y="6.513"/><use xlink:href="#19" y="8.684"/><use xlink:href="#20" y="10.855"/></svg><svg x="3675"><use xlink:href="#a"/><use xlink:href="#b" x="-.004" y="15.172"/><use xlink:href="#1"/><use xlink:href="#9" y="2.171"/><use xlink:href="#16" y="4.342"/><use xlink:href="#18" y="6.513"/><use xlink:href="#19" y="8.684"/><use xlink:href="#20" y="10.855"/><use xlink:href="#21" y="13.026"/></svg><svg x="3750"><use xlink:href="#a"/><use xlink:href="#b" x=".996" y="15.172"/><use xlink:href="#1"/><use xlink:href="#9" y="2.171"/><use xlink:href="#16" y="4.342"/><use xlink:href="#18" y="6.513"/><use xlink:href="#19" y="8.684"/><use xlink:href="#20" y="10.855"/><use xlink:href="#21" y="13.026"/></svg></svg></g></g></svg></svg>