<svg xmlns="http://www.w3.org/2000/svg" xmlns:xlink="http://www.w3.org/1999/xlink" width="840" height="385.65"><rect width="840" height="385.65" rx="5" ry="5" class="a"/><svg y="0%" x="0%"><circle cx="20" cy="20" r="6" fill="#ff5f58"/><circle cx="40" cy="20" r="6" fill="#ffbd2e"/><circle cx="60" cy="20" r="6" fill="#18c132"/></svg><svg height="325.65" viewBox="0 0 80 32.565" width="800" x="15" xmlns="http://www.w3.org/2000/svg" xmlns:xlink="http://www.w3.org/1999/xlink" y="50"><style>@keyframes m{0%{transform:translateX(-80px)}16.9%{transform:translateX(-400px)}17%{transform:translateX(-720px)}27.7%{transform:translateX(-960px)}31%{transform:translateX(-1120px)}33.5%{transform:translateX(-1280px)}36.5%{transform:translateX(-1520px)}39.6%{transform:translateX(-1760px)}43.8%{transform:translateX(-2400px)}55.9%{transform:translateX(-2560px)}57.6%{transform:translateX(-2800px)}59%{transform:translateX(-3040px)}62.8%{transform:translateX(-3280px)}68%{transform:translateX(-3760px)}82.1%{transform:translateX(-3920px)}87.5%{transform:translateX(-4240px)}95.1%{transform:translateX(-4320px)}to{transform:translateX(-4400px)}}.a{fill:#282d35}.f,.g,.h{fill:#b9c0cb}.g,.h{font-weight:700}.h{fill:#71bef2}.i{fill:#a8cc8c}.j{fill:#66c2cd}</style><g font-size="1.67" font-family="Monaco,Consolas,Menlo,'Bitstream Vera Sans Mono','Powerline Symbols',monospace"><defs><symbol id="1"><text y="1.67" class="f">$</text><text x="2.004" y="1.67" class="f">youtube-dl-interactive</text><text x="25.05" y="1.67" class="f">https://www.youtube.com/watch?v=CjLHuhOTnaI</text></symbol><symbol id="2"><text y="1.67" class="g">Title:</text><text x="7.014" y="1.67" class="h">Can</text><text x="11.022" y="1.67" class="h">You</text><text x="15.03" y="1.67" class="h">Trust</text><text x="21.042" y="1.67" class="h">Apple?</text><text x="28.056" y="1.67" class="h">Facebook?</text><text x="38.076" y="1.67" class="h">Google?</text></symbol><symbol id="3"><text y="1.67" class="i">?</text><text x="2.004" y="1.67" class="g">What</text><text x="7.014" y="1.67" class="g">do</text><text x="10.02" y="1.67" class="g">you</text><text x="14.028" y="1.67" class="g">want?</text><text x="20.04" y="1.67" class="f">(Use</text><text x="25.05" y="1.67" class="f">arrow</text><text x="31.062" y="1.67" class="f">keys)</text></symbol><symbol id="4"><text y="1.67" class="j">❯</text><text x="2.004" y="1.67" class="j">best</text><text x="7.014" y="1.67" class="j">video</text><text x="13.026" y="1.67" class="j">+</text><text x="15.03" y="1.67" class="j">best</text><text x="20.04" y="1.67" class="j">audio</text></symbol><symbol id="5"><text x="2.004" y="1.67" class="f">worst</text><text x="8.016" y="1.67" class="f">video</text><text x="14.028" y="1.67" class="f">+</text><text x="16.032" y="1.67" class="f">worst</text><text x="22.044" y="1.67" class="f">audio</text></symbol><symbol id="6"><text x="2.004" y="1.67" class="f">&lt;480p</text><text x="8.016" y="1.67" class="f">mp4</text></symbol><symbol id="7"><text x="2.004" y="1.67" class="f">audio</text><text x="8.016" y="1.67" class="f">only</text></symbol><symbol id="8"><text x="2.004" y="1.67" class="f">---</text><text x="6.012" y="1.67" class="f">specify</text><text x="14.028" y="1.67" class="f">resolution:</text><text x="26.052" y="1.67" class="f">---</text></symbol><symbol id="9"><text x="2.004" y="1.67" class="f">1080p</text></symbol><symbol id="10"><text x="2.004" y="1.67" class="f">720p</text></symbol><symbol id="11"><text x="2.004" y="1.67" class="f">480p</text></symbol><symbol id="12"><text x="2.004" y="1.67" class="f">360p</text></symbol><symbol id="13"><text x="2.004" y="1.67" class="f">240p</text></symbol><symbol id="14"><text y="1.67" class="f">(Move</text><text x="6.012" y="1.67" class="f">up</text><text x="9.018" y="1.67" class="f">and</text><text x="13.026" y="1.67" class="f">down</text><text x="18.036" y="1.67" class="f">to</text><text x="21.042" y="1.67" class="f">reveal</text><text x="28.056" y="1.67" class="f">more</text><text x="33.066" y="1.67" class="f">choices)</text></symbol><symbol id="15"><text y="1.67" class="i">?</text><text x="2.004" y="1.67" class="g">What</text><text x="7.014" y="1.67" class="g">do</text><text x="10.02" y="1.67" class="g">you</text><text x="14.028" y="1.67" class="g">want?</text></symbol><symbol id="16"><text x="2.004" y="1.67" class="f">best</text><text x="7.014" y="1.67" class="f">video</text><text x="13.026" y="1.67" class="f">+</text><text x="15.03" y="1.67" class="f">best</text><text x="20.04" y="1.67" class="f">audio</text></symbol><symbol id="17"><text y="1.67" class="j">❯</text><text x="2.004" y="1.67" class="j">worst</text><text x="8.016" y="1.67" class="j">video</text><text x="14.028" y="1.67" class="j">+</text><text x="16.032" y="1.67" class="j">worst</text><text x="22.044" y="1.67" class="j">audio</text></symbol><symbol id="18"><text y="1.67" class="j">❯</text><text x="2.004" y="1.67" class="j">1080p</text></symbol><symbol id="19"><text y="1.67" class="j">❯</text><text x="2.004" y="1.67" class="j">720p</text></symbol><symbol id="20"><text x="2.004" y="1.67" class="f">144p</text></symbol><symbol id="21"><text y="1.67" class="i">?</text><text x="2.004" y="1.67" class="g">What</text><text x="7.014" y="1.67" class="g">do</text><text x="10.02" y="1.67" class="g">you</text><text x="14.028" y="1.67" class="g">want?</text><text x="20.04" y="1.67" class="j">720p</text></symbol><symbol id="22"><text y="1.67" class="i">?</text><text x="2.004" y="1.67" class="g">Select</text><text x="9.018" y="1.67" class="g">a</text><text x="11.022" y="1.67" class="g">video</text><text x="17.034" y="1.67" class="g">file:</text><text x="23.046" y="1.67" class="f">(Use</text><text x="28.056" y="1.67" class="f">arrow</text><text x="34.068" y="1.67" class="f">keys)</text></symbol><symbol id="23"><text y="1.67" class="j">❯</text><text x="2.004" y="1.67" class="j">webm</text><text x="7.014" y="1.67" class="j">1280x720</text><text x="17.034" y="1.67" class="j">720p</text><text x="28.056" y="1.67" class="j">34.7</text><text x="33.066" y="1.67" class="j">MiB</text><text x="37.074" y="1.67" class="j">(247)</text></symbol><symbol id="24"><text x="2.004" y="1.67" class="f">mp4</text><text x="7.014" y="1.67" class="f">1280x720</text><text x="17.034" y="1.67" class="f">720p60</text><text x="28.056" y="1.67" class="f">22.6</text><text x="33.066" y="1.67" class="f">MiB</text><text x="37.074" y="1.67" class="f">(298)</text></symbol><symbol id="25"><text x="2.004" y="1.67" class="f">webm</text><text x="7.014" y="1.67" class="f">1280x720</text><text x="17.034" y="1.67" class="f">720p60</text><text x="28.056" y="1.67" class="f">32.5</text><text x="33.066" y="1.67" class="f">MiB</text><text x="37.074" y="1.67" class="f">(302)</text></symbol><symbol id="26"><text x="2.004" y="1.67" class="f">mp4</text><text x="7.014" y="1.67" class="f">1280x720</text><text x="17.034" y="1.67" class="f">720p</text><text x="28.056" y="1.67" class="f">33.6</text><text x="33.066" y="1.67" class="f">MiB</text><text x="37.074" y="1.67" class="f">(136)</text></symbol><symbol id="27"><text x="2.004" y="1.67" class="f">mp4</text><text x="7.014" y="1.67" class="f">1280x720</text><text x="17.034" y="1.67" class="f">hd720</text><text x="28.056" y="1.67" class="f">NaN</text><text x="37.074" y="1.67" class="f">audio:</text><text x="44.088" y="1.67" class="f">mp4a.40.2</text><text x="54.108" y="1.67" class="f">@</text><text x="56.112" y="1.67" class="f">192k</text><text x="61.122" y="1.67" class="f">(22)</text></symbol><symbol id="28"><text y="1.67" class="i">?</text><text x="2.004" y="1.67" class="g">Select</text><text x="9.018" y="1.67" class="g">a</text><text x="11.022" y="1.67" class="g">video</text><text x="17.034" y="1.67" class="g">file:</text></symbol><symbol id="29"><text x="2.004" y="1.67" class="f">webm</text><text x="7.014" y="1.67" class="f">1280x720</text><text x="17.034" y="1.67" class="f">720p</text><text x="28.056" y="1.67" class="f">34.7</text><text x="33.066" y="1.67" class="f">MiB</text><text x="37.074" y="1.67" class="f">(247)</text></symbol><symbol id="30"><text y="1.67" class="j">❯</text><text x="2.004" y="1.67" class="j">webm</text><text x="7.014" y="1.67" class="j">1280x720</text><text x="17.034" y="1.67" class="j">720p60</text><text x="28.056" y="1.67" class="j">32.5</text><text x="33.066" y="1.67" class="j">MiB</text><text x="37.074" y="1.67" class="j">(302)</text></symbol><symbol id="31"><text y="1.67" class="j">❯</text><text x="2.004" y="1.67" class="j">mp4</text><text x="7.014" y="1.67" class="j">1280x720</text><text x="17.034" y="1.67" class="j">720p</text><text x="28.056" y="1.67" class="j">33.6</text><text x="33.066" y="1.67" class="j">MiB</text><text x="37.074" y="1.67" class="j">(136)</text></symbol><symbol id="32"><text y="1.67" class="j">❯</text><text x="2.004" y="1.67" class="j">mp4</text><text x="7.014" y="1.67" class="j">1280x720</text><text x="17.034" y="1.67" class="j">hd720</text><text x="28.056" y="1.67" class="j">NaN</text><text x="37.074" y="1.67" class="j">audio:</text><text x="44.088" y="1.67" class="j">mp4a.40.2</text><text x="54.108" y="1.67" class="j">@</text><text x="56.112" y="1.67" class="j">192k</text><text x="61.122" y="1.67" class="j">(22)</text></symbol><symbol id="33"><text y="1.67" class="i">?</text><text x="2.004" y="1.67" class="g">Select</text><text x="9.018" y="1.67" class="g">a</text><text x="11.022" y="1.67" class="g">video</text><text x="17.034" y="1.67" class="g">file:</text><text x="23.046" y="1.67" class="j">mp4</text><text x="28.056" y="1.67" class="j">1280x720</text><text x="38.076" y="1.67" class="j">hd720</text><text x="49.098" y="1.67" class="j">NaN</text><text x="58.116" y="1.67" class="j">audio:</text><text x="65.13" y="1.67" class="j">mp4a.40.2</text><text x="75.15" y="1.67" class="j">@</text><text x="77.154" y="1.67" class="j">192</text></symbol><symbol id="34"><text y="1.67" class="j">k</text><text x="2.004" y="1.67" class="j">(22)</text></symbol><symbol id="35"><text y="1.67" class="i">?</text><text x="2.004" y="1.67" class="g">Select</text><text x="9.018" y="1.67" class="g">audio:</text><text x="16.032" y="1.67" class="f">(Use</text><text x="21.042" y="1.67" class="f">arrow</text><text x="27.054" y="1.67" class="f">keys)</text></symbol><symbol id="36"><text y="1.67" class="j">❯</text><text x="2.004" y="1.67" class="j">Use</text><text x="6.012" y="1.67" class="j">audio</text><text x="12.024" y="1.67" class="j">included</text><text x="21.042" y="1.67" class="j">in</text><text x="24.048" y="1.67" class="j">the</text><text x="28.056" y="1.67" class="j">video:</text><text x="35.07" y="1.67" class="j">mp4a.40.2</text><text x="45.09" y="1.67" class="j">@</text><text x="47.094" y="1.67" class="j">192k</text></symbol><symbol id="37"><text x="2.004" y="1.67" class="f">──────────────</text></symbol><symbol id="38"><text x="2.004" y="1.67" class="f">best</text><text x="7.014" y="1.67" class="f">audio</text></symbol><symbol id="39"><text x="2.004" y="1.67" class="f">worst</text><text x="8.016" y="1.67" class="f">audio</text></symbol><symbol id="40"><text x="2.004" y="1.67" class="f">---</text><text x="6.012" y="1.67" class="f">specify:</text><text x="15.03" y="1.67" class="f">---</text></symbol><symbol id="41"><text x="2.004" y="1.67" class="f">webm</text><text x="7.014" y="1.67" class="f">opus</text><text x="17.034" y="1.67" class="f">@</text><text x="19.038" y="1.67" class="f">50k</text><text x="23.046" y="1.67" class="f">DASH</text><text x="28.056" y="1.67" class="f">audio</text><text x="34.068" y="1.67" class="f">3.9</text><text x="38.076" y="1.67" class="f">MiB</text><text x="42.084" y="1.67" class="f">(249)</text></symbol><symbol id="42"><text x="2.004" y="1.67" class="f">webm</text><text x="7.014" y="1.67" class="f">opus</text><text x="17.034" y="1.67" class="f">@</text><text x="19.038" y="1.67" class="f">70k</text><text x="23.046" y="1.67" class="f">DASH</text><text x="28.056" y="1.67" class="f">audio</text><text x="34.068" y="1.67" class="f">5.1</text><text x="38.076" y="1.67" class="f">MiB</text><text x="42.084" y="1.67" class="f">(250)</text></symbol><symbol id="43"><text x="2.004" y="1.67" class="f">webm</text><text x="7.014" y="1.67" class="f">vorbis</text><text x="17.034" y="1.67" class="f">@</text><text x="19.038" y="1.67" class="f">128k</text><text x="24.048" y="1.67" class="f">DASH</text><text x="29.058" y="1.67" class="f">audio</text><text x="35.07" y="1.67" class="f">8.2</text><text x="39.078" y="1.67" class="f">MiB</text><text x="43.086" y="1.67" class="f">(171)</text></symbol><symbol id="44"><text x="2.004" y="1.67" class="f">m4a</text><text x="7.014" y="1.67" class="f">mp4a.40.2</text><text x="17.034" y="1.67" class="f">@</text><text x="19.038" y="1.67" class="f">128k</text><text x="24.048" y="1.67" class="f">DASH</text><text x="29.058" y="1.67" class="f">audio</text><text x="35.07" y="1.67" class="f">10.0</text><text x="40.08" y="1.67" class="f">MiB</text><text x="44.088" y="1.67" class="f">(140)</text></symbol><symbol id="45"><text x="2.004" y="1.67" class="f">webm</text><text x="7.014" y="1.67" class="f">opus</text><text x="17.034" y="1.67" class="f">@</text><text x="19.038" y="1.67" class="f">160k</text><text x="24.048" y="1.67" class="f">DASH</text><text x="29.058" y="1.67" class="f">audio</text><text x="35.07" y="1.67" class="f">9.9</text><text x="39.078" y="1.67" class="f">MiB</text><text x="43.086" y="1.67" class="f">(251)</text></symbol><symbol id="46"><text y="1.67" class="i">?</text><text x="2.004" y="1.67" class="g">Select</text><text x="9.018" y="1.67" class="g">audio:</text><text x="16.032" y="1.67" class="j">best</text><text x="21.042" y="1.67" class="j">audio</text></symbol><symbol id="47"><text y="1.67" class="i">✔</text><text x="2.004" y="1.67" class="f">OK.</text><text x="6.012" y="1.67" class="f">Running:</text><text x="15.03" y="1.67" class="f">youtube-dl</text><text x="27.054" y="1.67" class="f">-f</text><text x="30.06" y="1.67" class="f">&apos;22+bestaudio&apos;</text><text x="46.092" y="1.67" class="f">&quot;https://www.youtube.com/watch?v=C</text></symbol><symbol id="48"><text y="1.67" class="f">jLHuhOTnaI&quot;</text></symbol><symbol id="49"><text y="1.67" class="f">[youtube]</text><text x="10.02" y="1.67" class="f">CjLHuhOTnaI:</text><text x="23.046" y="1.67" class="f">Downloading</text><text x="35.07" y="1.67" class="f">webpage</text></symbol><symbol id="a"><path fill="transparent" d="M0 0h80v16H0z"/></symbol><symbol id="b"><path fill="#6f7683" d="M0 0h1.102v2.171H0z"/></symbol></defs><path class="a" d="M0 0h80v32.565H0z"/><g style="animation-duration:16.296023s;animation-iteration-count:infinite;animation-name:m;animation-timing-function:steps(1,end)"><svg width="4480"><svg><use xlink:href="#a"/><use xlink:href="#1"/></svg><svg x="80"><use xlink:href="#a"/><use xlink:href="#1"/><text y="3.841" class="j">⠋</text><text x="2.004" y="3.841" class="f">Loading</text><text x="10.02" y="3.841" class="f">metadata</text></svg><svg x="160"><use xlink:href="#a"/><use xlink:href="#1"/></svg><svg x="240"><use xlink:href="#a"/><use xlink:href="#1"/></svg><svg x="320"><use xlink:href="#a"/><use xlink:href="#b" x="-.004" y="2.146"/><use xlink:href="#1"/></svg><svg x="400"><use xlink:href="#a"/><use xlink:href="#b" x="-.004" y="4.317"/><use xlink:href="#1"/><use xlink:href="#2" y="2.171"/></svg><svg x="480"><use xlink:href="#a"/><use xlink:href="#1"/><use xlink:href="#2" y="2.171"/></svg><svg x="560"><use xlink:href="#a"/><use xlink:href="#1"/><use xlink:href="#2" y="2.171"/><use xlink:href="#3" y="4.342"/><use xlink:href="#4" y="6.513"/><use xlink:href="#5" y="8.684"/><use xlink:href="#6" y="10.855"/><use xlink:href="#7" y="13.026"/><use xlink:href="#8" y="15.197"/><use xlink:href="#9" y="17.368"/><use xlink:href="#10" y="19.539"/><use xlink:href="#11" y="21.71"/><use xlink:href="#12" y="23.881"/><use xlink:href="#13" y="26.052"/><use xlink:href="#14" y="28.223"/></svg><svg x="640"><use xlink:href="#a"/><use xlink:href="#1"/><use xlink:href="#2" y="2.171"/><use xlink:href="#3" y="4.342"/><use xlink:href="#4" y="6.513"/><use xlink:href="#5" y="8.684"/><use xlink:href="#6" y="10.855"/><use xlink:href="#7" y="13.026"/><use xlink:href="#8" y="15.197"/><use xlink:href="#9" y="17.368"/><use xlink:href="#10" y="19.539"/><use xlink:href="#11" y="21.71"/><use xlink:href="#12" y="23.881"/><use xlink:href="#13" y="26.052"/><use xlink:href="#14" y="28.223"/></svg><svg x="720"><use xlink:href="#a"/><use xlink:href="#1"/><use xlink:href="#2" y="2.171"/><use xlink:href="#3" y="4.342"/><use xlink:href="#4" y="6.513"/><use xlink:href="#5" y="8.684"/><use xlink:href="#6" y="10.855"/><use xlink:href="#7" y="13.026"/><use xlink:href="#8" y="15.197"/><use xlink:href="#9" y="17.368"/><use xlink:href="#10" y="19.539"/><use xlink:href="#11" y="21.71"/><use xlink:href="#12" y="23.881"/><use xlink:href="#13" y="26.052"/><use xlink:href="#14" y="28.223"/></svg><svg x="800"><use xlink:href="#a"/><use xlink:href="#1"/><use xlink:href="#2" y="2.171"/></svg><svg x="880"><use xlink:href="#a"/><use xlink:href="#1"/><use xlink:href="#2" y="2.171"/><use xlink:href="#15" y="4.342"/><use xlink:href="#16" y="6.513"/><use xlink:href="#17" y="8.684"/><use xlink:href="#6" y="10.855"/><use xlink:href="#7" y="13.026"/><use xlink:href="#8" y="15.197"/><use xlink:href="#9" y="17.368"/><use xlink:href="#10" y="19.539"/><use xlink:href="#11" y="21.71"/><use xlink:href="#12" y="23.881"/><use xlink:href="#13" y="26.052"/><use xlink:href="#14" y="28.223"/></svg><svg x="960"><use xlink:href="#a"/><use xlink:href="#1"/><use xlink:href="#2" y="2.171"/><use xlink:href="#15" y="4.342"/><use xlink:href="#16" y="6.513"/><use xlink:href="#17" y="8.684"/><use xlink:href="#6" y="10.855"/><use xlink:href="#7" y="13.026"/><use xlink:href="#8" y="15.197"/><use xlink:href="#9" y="17.368"/><use xlink:href="#10" y="19.539"/><use xlink:href="#11" y="21.71"/><use xlink:href="#12" y="23.881"/><use xlink:href="#13" y="26.052"/><use xlink:href="#14" y="28.223"/></svg><svg x="1040"><use xlink:href="#a"/><use xlink:href="#1"/><use xlink:href="#2" y="2.171"/></svg><svg x="1120"><use xlink:href="#a"/><use xlink:href="#1"/><use xlink:href="#2" y="2.171"/><use xlink:href="#15" y="4.342"/><use xlink:href="#16" y="6.513"/><use xlink:href="#5" y="8.684"/><text y="12.525" class="j">❯</text><text x="2.004" y="12.525" class="j">&lt;480p</text><text x="8.016" y="12.525" class="j">mp4</text><use xlink:href="#7" y="13.026"/><use xlink:href="#8" y="15.197"/><use xlink:href="#9" y="17.368"/><use xlink:href="#10" y="19.539"/><use xlink:href="#11" y="21.71"/><use xlink:href="#12" y="23.881"/><use xlink:href="#13" y="26.052"/><use xlink:href="#14" y="28.223"/></svg><svg x="1200"><use xlink:href="#a"/><use xlink:href="#1"/><use xlink:href="#2" y="2.171"/></svg><svg x="1280"><use xlink:href="#a"/><use xlink:href="#1"/><use xlink:href="#2" y="2.171"/><use xlink:href="#15" y="4.342"/><use xlink:href="#16" y="6.513"/><use xlink:href="#5" y="8.684"/><use xlink:href="#6" y="10.855"/><text y="14.696" class="j">❯</text><text x="2.004" y="14.696" class="j">audio</text><text x="8.016" y="14.696" class="j">only</text><use xlink:href="#8" y="15.197"/><use xlink:href="#9" y="17.368"/><use xlink:href="#10" y="19.539"/><use xlink:href="#11" y="21.71"/><use xlink:href="#12" y="23.881"/><use xlink:href="#13" y="26.052"/><use xlink:href="#14" y="28.223"/></svg><svg x="1360"><use xlink:href="#a"/><use xlink:href="#1"/><use xlink:href="#2" y="2.171"/></svg><svg x="1440"><use xlink:href="#a"/><use xlink:href="#1"/><use xlink:href="#2" y="2.171"/><use xlink:href="#15" y="4.342"/><use xlink:href="#16" y="6.513"/><use xlink:href="#5" y="8.684"/><use xlink:href="#6" y="10.855"/><use xlink:href="#7" y="13.026"/><use xlink:href="#8" y="15.197"/><use xlink:href="#18" y="17.368"/><use xlink:href="#10" y="19.539"/><use xlink:href="#11" y="21.71"/><use xlink:href="#12" y="23.881"/><use xlink:href="#13" y="26.052"/><use xlink:href="#14" y="28.223"/></svg><svg x="1520"><use xlink:href="#a"/><use xlink:href="#1"/><use xlink:href="#2" y="2.171"/><use xlink:href="#15" y="4.342"/><use xlink:href="#16" y="6.513"/><use xlink:href="#5" y="8.684"/><use xlink:href="#6" y="10.855"/><use xlink:href="#7" y="13.026"/><use xlink:href="#8" y="15.197"/><use xlink:href="#18" y="17.368"/><use xlink:href="#10" y="19.539"/><use xlink:href="#11" y="21.71"/><use xlink:href="#12" y="23.881"/><use xlink:href="#13" y="26.052"/><use xlink:href="#14" y="28.223"/></svg><svg x="1600"><use xlink:href="#a"/><use xlink:href="#1"/><use xlink:href="#2" y="2.171"/></svg><svg x="1680"><use xlink:href="#a"/><use xlink:href="#1"/><use xlink:href="#2" y="2.171"/><use xlink:href="#15" y="4.342"/><use xlink:href="#5" y="6.513"/><use xlink:href="#6" y="8.684"/><use xlink:href="#7" y="10.855"/><use xlink:href="#8" y="13.026"/><use xlink:href="#9" y="15.197"/><use xlink:href="#19" y="17.368"/><use xlink:href="#11" y="19.539"/><use xlink:href="#12" y="21.71"/><use xlink:href="#13" y="23.881"/><use xlink:href="#20" y="26.052"/><use xlink:href="#14" y="28.223"/></svg><svg x="1760"><use xlink:href="#a"/><use xlink:href="#1"/><use xlink:href="#2" y="2.171"/><use xlink:href="#15" y="4.342"/><use xlink:href="#5" y="6.513"/><use xlink:href="#6" y="8.684"/><use xlink:href="#7" y="10.855"/><use xlink:href="#8" y="13.026"/><use xlink:href="#9" y="15.197"/><use xlink:href="#19" y="17.368"/><use xlink:href="#11" y="19.539"/><use xlink:href="#12" y="21.71"/><use xlink:href="#13" y="23.881"/><use xlink:href="#20" y="26.052"/><use xlink:href="#14" y="28.223"/></svg><svg x="1840"><use xlink:href="#a"/><use xlink:href="#1"/><use xlink:href="#2" y="2.171"/></svg><svg x="1920"><use xlink:href="#a"/><use xlink:href="#1"/><use xlink:href="#2" y="2.171"/><use xlink:href="#21" y="4.342"/></svg><svg x="2000"><use xlink:href="#a"/><use xlink:href="#1"/><use xlink:href="#2" y="2.171"/><use xlink:href="#21" y="4.342"/></svg><svg x="2080"><use xlink:href="#a"/><use xlink:href="#1"/><use xlink:href="#2" y="2.171"/><use xlink:href="#21" y="4.342"/></svg><svg x="2160"><use xlink:href="#a"/><use xlink:href="#b" x="-.004" y="6.488"/><use xlink:href="#1"/><use xlink:href="#2" y="2.171"/><use xlink:href="#21" y="4.342"/></svg><svg x="2240"><use xlink:href="#a"/><use xlink:href="#1"/><use xlink:href="#2" y="2.171"/><use xlink:href="#21" y="4.342"/></svg><svg x="2320"><use xlink:href="#a"/><use xlink:href="#1"/><use xlink:href="#2" y="2.171"/><use xlink:href="#21" y="4.342"/><use xlink:href="#22" y="6.513"/><use xlink:href="#23" y="8.684"/><use xlink:href="#24" y="10.855"/><use xlink:href="#25" y="13.026"/><use xlink:href="#26" y="15.197"/><use xlink:href="#27" y="17.368"/></svg><svg x="2400"><use xlink:href="#a"/><use xlink:href="#1"/><use xlink:href="#2" y="2.171"/><use xlink:href="#21" y="4.342"/><use xlink:href="#22" y="6.513"/><use xlink:href="#23" y="8.684"/><use xlink:href="#24" y="10.855"/><use xlink:href="#25" y="13.026"/><use xlink:href="#26" y="15.197"/><use xlink:href="#27" y="17.368"/></svg><svg x="2480"><use xlink:href="#a"/><use xlink:href="#1"/><use xlink:href="#2" y="2.171"/><use xlink:href="#21" y="4.342"/></svg><svg x="2560"><use xlink:href="#a"/><use xlink:href="#1"/><use xlink:href="#2" y="2.171"/><use xlink:href="#21" y="4.342"/><use xlink:href="#28" y="6.513"/><use xlink:href="#29" y="8.684"/><text y="12.525" class="j">❯</text><text x="2.004" y="12.525" class="j">mp4</text><text x="7.014" y="12.525" class="j">1280x720</text><text x="17.034" y="12.525" class="j">720p60</text><text x="28.056" y="12.525" class="j">22.6</text><text x="33.066" y="12.525" class="j">MiB</text><text x="37.074" y="12.525" class="j">(298)</text><use xlink:href="#25" y="13.026"/><use xlink:href="#26" y="15.197"/><use xlink:href="#27" y="17.368"/></svg><svg x="2640"><use xlink:href="#a"/><use xlink:href="#1"/><use xlink:href="#2" y="2.171"/><use xlink:href="#21" y="4.342"/></svg><svg x="2720"><use xlink:href="#a"/><use xlink:href="#1"/><use xlink:href="#2" y="2.171"/><use xlink:href="#21" y="4.342"/><use xlink:href="#28" y="6.513"/><use xlink:href="#29" y="8.684"/><use xlink:href="#24" y="10.855"/><use xlink:href="#30" y="13.026"/><use xlink:href="#26" y="15.197"/><use xlink:href="#27" y="17.368"/></svg><svg x="2800"><use xlink:href="#a"/><use xlink:href="#1"/><use xlink:href="#2" y="2.171"/><use xlink:href="#21" y="4.342"/><use xlink:href="#28" y="6.513"/><use xlink:href="#29" y="8.684"/><use xlink:href="#24" y="10.855"/><use xlink:href="#30" y="13.026"/><use xlink:href="#26" y="15.197"/><use xlink:href="#27" y="17.368"/></svg><svg x="2880"><use xlink:href="#a"/><use xlink:href="#1"/><use xlink:href="#2" y="2.171"/><use xlink:href="#21" y="4.342"/></svg><svg x="2960"><use xlink:href="#a"/><use xlink:href="#1"/><use xlink:href="#2" y="2.171"/><use xlink:href="#21" y="4.342"/><use xlink:href="#28" y="6.513"/><use xlink:href="#29" y="8.684"/><use xlink:href="#24" y="10.855"/><use xlink:href="#25" y="13.026"/><use xlink:href="#31" y="15.197"/><use xlink:href="#27" y="17.368"/></svg><svg x="3040"><use xlink:href="#a"/><use xlink:href="#1"/><use xlink:href="#2" y="2.171"/><use xlink:href="#21" y="4.342"/><use xlink:href="#28" y="6.513"/><use xlink:href="#29" y="8.684"/><use xlink:href="#24" y="10.855"/><use xlink:href="#25" y="13.026"/><use xlink:href="#31" y="15.197"/><use xlink:href="#27" y="17.368"/></svg><svg x="3120"><use xlink:href="#a"/><use xlink:href="#1"/><use xlink:href="#2" y="2.171"/><use xlink:href="#21" y="4.342"/></svg><svg x="3200"><use xlink:href="#a"/><use xlink:href="#1"/><use xlink:href="#2" y="2.171"/><use xlink:href="#21" y="4.342"/><use xlink:href="#28" y="6.513"/><use xlink:href="#29" y="8.684"/><use xlink:href="#24" y="10.855"/><use xlink:href="#25" y="13.026"/><use xlink:href="#26" y="15.197"/><use xlink:href="#32" y="17.368"/></svg><svg x="3280"><use xlink:href="#a"/><use xlink:href="#1"/><use xlink:href="#2" y="2.171"/><use xlink:href="#21" y="4.342"/><use xlink:href="#28" y="6.513"/><use xlink:href="#29" y="8.684"/><use xlink:href="#24" y="10.855"/><use xlink:href="#25" y="13.026"/><use xlink:href="#26" y="15.197"/><use xlink:href="#32" y="17.368"/></svg><svg x="3360"><use xlink:href="#a"/><use xlink:href="#1"/><use xlink:href="#2" y="2.171"/><use xlink:href="#21" y="4.342"/></svg><svg x="3440"><use xlink:href="#a"/><use xlink:href="#1"/><use xlink:href="#2" y="2.171"/><use xlink:href="#21" y="4.342"/><use xlink:href="#33" y="6.513"/><use xlink:href="#34" y="8.684"/></svg><svg x="3520"><use xlink:href="#a"/><use xlink:href="#b" x="-.004" y="10.83"/><use xlink:href="#1"/><use xlink:href="#2" y="2.171"/><use xlink:href="#21" y="4.342"/><use xlink:href="#33" y="6.513"/><use xlink:href="#34" y="8.684"/></svg><svg x="3600"><use xlink:href="#a"/><use xlink:href="#1"/><use xlink:href="#2" y="2.171"/><use xlink:href="#21" y="4.342"/><use xlink:href="#33" y="6.513"/><use xlink:href="#34" y="8.684"/></svg><svg x="3680"><use xlink:href="#a"/><use xlink:href="#2"/><use xlink:href="#21" y="2.171"/><use xlink:href="#33" y="4.342"/><use xlink:href="#34" y="6.513"/><use xlink:href="#35" y="8.684"/><use xlink:href="#36" y="10.855"/><use xlink:href="#37" y="13.026"/><use xlink:href="#38" y="15.197"/><use xlink:href="#39" y="17.368"/><use xlink:href="#40" y="19.539"/><use xlink:href="#41" y="21.71"/><use xlink:href="#42" y="23.881"/><use xlink:href="#43" y="26.052"/><use xlink:href="#44" y="28.223"/><use xlink:href="#45" y="30.394"/><use xlink:href="#14" y="32.565"/></svg><svg x="3760"><use xlink:href="#a"/><use xlink:href="#2"/><use xlink:href="#21" y="2.171"/><use xlink:href="#33" y="4.342"/><use xlink:href="#34" y="6.513"/><use xlink:href="#35" y="8.684"/><use xlink:href="#36" y="10.855"/><use xlink:href="#37" y="13.026"/><use xlink:href="#38" y="15.197"/><use xlink:href="#39" y="17.368"/><use xlink:href="#40" y="19.539"/><use xlink:href="#41" y="21.71"/><use xlink:href="#42" y="23.881"/><use xlink:href="#43" y="26.052"/><use xlink:href="#44" y="28.223"/><use xlink:href="#45" y="30.394"/><use xlink:href="#14" y="32.565"/></svg><svg x="3840"><use xlink:href="#a"/><use xlink:href="#2"/><use xlink:href="#21" y="2.171"/><use xlink:href="#33" y="4.342"/><use xlink:href="#34" y="6.513"/></svg><svg x="3920"><use xlink:href="#a"/><use xlink:href="#2"/><use xlink:href="#21" y="2.171"/><use xlink:href="#33" y="4.342"/><use xlink:href="#34" y="6.513"/><text y="10.354" class="i">?</text><text x="2.004" y="10.354" class="g">Select</text><text x="9.018" y="10.354" class="g">audio:</text><text x="2.004" y="12.525" class="f">Use</text><text x="6.012" y="12.525" class="f">audio</text><text x="12.024" y="12.525" class="f">included</text><text x="21.042" y="12.525" class="f">in</text><text x="24.048" y="12.525" class="f">the</text><text x="28.056" y="12.525" class="f">video:</text><text x="35.07" y="12.525" class="f">mp4a.40.2</text><text x="45.09" y="12.525" class="f">@</text><text x="47.094" y="12.525" class="f">192k</text><use xlink:href="#37" y="13.026"/><text y="16.867" class="j">❯</text><text x="2.004" y="16.867" class="j">best</text><text x="7.014" y="16.867" class="j">audio</text><use xlink:href="#39" y="17.368"/><use xlink:href="#40" y="19.539"/><use xlink:href="#41" y="21.71"/><use xlink:href="#42" y="23.881"/><use xlink:href="#43" y="26.052"/><use xlink:href="#44" y="28.223"/><use xlink:href="#45" y="30.394"/><use xlink:href="#14" y="32.565"/></svg><svg x="4000"><use xlink:href="#a"/><use xlink:href="#2"/><use xlink:href="#21" y="2.171"/><use xlink:href="#33" y="4.342"/><use xlink:href="#34" y="6.513"/></svg><svg x="4080"><use xlink:href="#a"/><use xlink:href="#2"/><use xlink:href="#21" y="2.171"/><use xlink:href="#33" y="4.342"/><use xlink:href="#34" y="6.513"/><use xlink:href="#46" y="8.684"/></svg><svg x="4160"><use xlink:href="#a"/><use xlink:href="#b" x="-.004" y="10.83"/><use xlink:href="#2"/><use xlink:href="#21" y="2.171"/><use xlink:href="#33" y="4.342"/><use xlink:href="#34" y="6.513"/><use xlink:href="#46" y="8.684"/></svg><svg x="4240"><use xlink:href="#a"/><use xlink:href="#b" x="-.004" y="15.172"/><use xlink:href="#2"/><use xlink:href="#21" y="2.171"/><use xlink:href="#33" y="4.342"/><use xlink:href="#34" y="6.513"/><use xlink:href="#46" y="8.684"/><use xlink:href="#47" y="10.855"/><use xlink:href="#48" y="13.026"/></svg><svg x="4320"><use xlink:href="#a"/><use xlink:href="#b" x="-.004" y="17.343"/><use xlink:href="#2"/><use xlink:href="#21" y="2.171"/><use xlink:href="#33" y="4.342"/><use xlink:href="#34" y="6.513"/><use xlink:href="#46" y="8.684"/><use xlink:href="#47" y="10.855"/><use xlink:href="#48" y="13.026"/><use xlink:href="#49" y="15.197"/></svg><svg x="4400"><use xlink:href="#a"/><use xlink:href="#b" x="-.004" y="19.514"/><use xlink:href="#2"/><use xlink:href="#21" y="2.171"/><use xlink:href="#33" y="4.342"/><use xlink:href="#34" y="6.513"/><use xlink:href="#46" y="8.684"/><use xlink:href="#47" y="10.855"/><use xlink:href="#48" y="13.026"/><use xlink:href="#49" y="15.197"/><text y="19.038" class="f">[youtube]</text><text x="10.02" y="19.038" class="f">CjLHuhOTnaI:</text><text x="23.046" y="19.038" class="f">Downloading</text><text x="35.07" y="19.038" class="f">video</text><text x="41.082" y="19.038" class="f">info</text><text x="46.092" y="19.038" class="f">webpage</text></svg></svg></g></g></svg></svg>