<svg xmlns="http://www.w3.org/2000/svg" xmlns:xlink="http://www.w3.org/1999/xlink" width="1260" height="602.75"><rect width="1260" height="602.75" rx="5" ry="5" class="a"/><svg y="0%" x="0%"><circle cx="20" cy="20" r="6" fill="#ff5f58"/><circle cx="40" cy="20" r="6" fill="#ffbd2e"/><circle cx="60" cy="20" r="6" fill="#18c132"/></svg><svg height="542.75" viewBox="0 0 122 54.275" width="1220" x="15" xmlns="http://www.w3.org/2000/svg" xmlns:xlink="http://www.w3.org/1999/xlink" y="50"><style>@keyframes l{0%{transform:translateX(-976px)}4.3%{transform:translateX(-1098px)}6.7%{transform:translateX(-1342px)}10.8%{transform:translateX(-1708px)}11%{transform:translateX(-2196px)}17.9%{transform:translateX(-2440px)}23.3%{transform:translateX(-2684px)}28.2%{transform:translateX(-3172px)}32.1%{transform:translateX(-4026px)}42%{transform:translateX(-4514px)}50%{transform:translateX(-5246px)}60.6%{transform:translateX(-5734px)}69.6%{transform:translateX(-5856px)}74.1%{transform:translateX(-5978px)}to{transform:translateX(-6100px)}}.a{fill:#282d35}.f{fill:#b9c0cb}.g{fill:#a8cc8c}.h{fill:#b9c0cb;font-weight:700}.i{fill:#66c2cd}</style><g font-size="1.67" font-family="Monaco,Consolas,Menlo,'Bitstream Vera Sans Mono','Powerline Symbols',monospace"><defs><symbol id="1"><text y="1.67" class="f">$</text><text x="2.004" y="1.67" class="f">youtube-dl-interactive</text><text x="25.05" y="1.67" class="f">https://www.youtube.com/watch?v=CjLHuhOTnaI</text></symbol><symbol id="2"><text y="1.67" class="g">?</text><text x="2.004" y="1.67" class="h">Select</text><text x="9.018" y="1.67" class="h">resolution:</text><text x="21.042" y="1.67" class="f">(Use</text><text x="26.052" y="1.67" class="f">arrow</text><text x="32.064" y="1.67" class="f">keys)</text></symbol><symbol id="3"><text y="1.67" class="i">❯</text><text x="2.004" y="1.67" class="i">audio</text><text x="8.016" y="1.67" class="i">only</text></symbol><symbol id="4"><text x="2.004" y="1.67" class="f">640x360</text></symbol><symbol id="5"><text x="2.004" y="1.67" class="f">1280x720</text></symbol><symbol id="6"><text y="1.67" class="g">?</text><text x="2.004" y="1.67" class="h">Select</text><text x="9.018" y="1.67" class="h">resolution:</text></symbol><symbol id="7"><text x="2.004" y="1.67" class="f">audio</text><text x="8.016" y="1.67" class="f">only</text></symbol><symbol id="8"><text y="1.67" class="i">❯</text><text x="2.004" y="1.67" class="i">640x360</text></symbol><symbol id="9"><text y="1.67" class="g">?</text><text x="2.004" y="1.67" class="h">Select</text><text x="9.018" y="1.67" class="h">resolution:</text><text x="21.042" y="1.67" class="i">640x360</text></symbol><symbol id="10"><text y="1.67" class="g">?</text><text x="2.004" y="1.67" class="h">Select</text><text x="9.018" y="1.67" class="h">extension:</text><text x="20.04" y="1.67" class="f">(Use</text><text x="25.05" y="1.67" class="f">arrow</text><text x="31.062" y="1.67" class="f">keys)</text></symbol><symbol id="11"><text y="1.67" class="i">❯</text><text x="2.004" y="1.67" class="i">mp4</text></symbol><symbol id="12"><text x="2.004" y="1.67" class="f">webm</text></symbol><symbol id="13"><text y="1.67" class="g">?</text><text x="2.004" y="1.67" class="h">Select</text><text x="9.018" y="1.67" class="h">extension:</text></symbol><symbol id="14"><text x="2.004" y="1.67" class="f">mp4</text></symbol><symbol id="15"><text y="1.67" class="i">❯</text><text x="2.004" y="1.67" class="i">webm</text></symbol><symbol id="16"><text y="1.67" class="g">?</text><text x="2.004" y="1.67" class="h">Select</text><text x="9.018" y="1.67" class="h">extension:</text><text x="20.04" y="1.67" class="i">webm</text></symbol><symbol id="17"><text y="1.67" class="g">?</text><text x="2.004" y="1.67" class="h">Include</text><text x="10.02" y="1.67" class="h">subtitles?</text><text x="21.042" y="1.67" class="f">(Y/n)</text></symbol><symbol id="18"><text y="1.67" class="g">?</text><text x="2.004" y="1.67" class="h">Include</text><text x="10.02" y="1.67" class="h">subtitles?</text><text x="21.042" y="1.67" class="i">Yes</text></symbol><symbol id="19"><text y="1.67" class="g">✔</text><text x="2.004" y="1.67" class="f">OK,</text><text x="6.012" y="1.67" class="f">we</text><text x="9.018" y="1.67" class="f">will</text><text x="14.028" y="1.67" class="f">download</text><text x="23.046" y="1.67" class="f">format</text><text x="30.06" y="1.67" class="f">with</text><text x="35.07" y="1.67" class="f">number</text><text x="42.084" y="1.67" class="f">43</text></symbol><symbol id="20"><text y="1.67" class="f">[youtube]</text><text x="10.02" y="1.67" class="f">CjLHuhOTnaI:</text><text x="23.046" y="1.67" class="f">Downloading</text><text x="35.07" y="1.67" class="f">webpage</text></symbol><symbol id="21"><text y="1.67" class="f">[youtube]</text><text x="10.02" y="1.67" class="f">CjLHuhOTnaI:</text><text x="23.046" y="1.67" class="f">Downloading</text><text x="35.07" y="1.67" class="f">video</text><text x="41.082" y="1.67" class="f">info</text><text x="46.092" y="1.67" class="f">webpage</text></symbol><symbol id="a"><path fill="transparent" d="M0 0h122v25H0z"/></symbol><symbol id="b"><path fill="#6f7683" d="M0 0h1.102v2.171H0z"/></symbol></defs><path class="a" d="M0 0h122v54.275H0z"/><g style="animation-duration:15.451402s;animation-iteration-count:infinite;animation-name:l;animation-timing-function:steps(1,end)"><svg width="6222"><svg><use xlink:href="#a"/><use xlink:href="#b" x="7.996"/><text y="1.67" class="f">$</text><text x="2.004" y="1.67" class="f">youtub</text></svg><svg x="122"><use xlink:href="#a"/><use xlink:href="#b" x="38.996"/><text y="1.67" class="f">$</text><text x="2.004" y="1.67" class="f">youtube-dl-interactive</text><text x="25.05" y="1.67" class="f">https://www.yo</text></svg><svg x="244"><use xlink:href="#a"/><use xlink:href="#b" x="49.996"/><text y="1.67" class="f">$</text><text x="2.004" y="1.67" class="f">youtube-dl-interactive</text><text x="25.05" y="1.67" class="f">https://www.youtube.com/w</text></svg><svg x="366"><use xlink:href="#a"/><use xlink:href="#b" x="53.996"/><text y="1.67" class="f">$</text><text x="2.004" y="1.67" class="f">youtube-dl-interactive</text><text x="25.05" y="1.67" class="f">https://www.youtube.com/watch</text></svg><svg x="488"><use xlink:href="#a"/><use xlink:href="#b" x="56.996"/><text y="1.67" class="f">$</text><text x="2.004" y="1.67" class="f">youtube-dl-interactive</text><text x="25.05" y="1.67" class="f">https://www.youtube.com/watch?v=</text></svg><svg x="610"><use xlink:href="#a"/><use xlink:href="#b" x="59.996"/><text y="1.67" class="f">$</text><text x="2.004" y="1.67" class="f">youtube-dl-interactive</text><text x="25.05" y="1.67" class="f">https://www.youtube.com/watch?v=CjL</text></svg><svg x="732"><use xlink:href="#a"/><use xlink:href="#b" x="62.996"/><text y="1.67" class="f">$</text><text x="2.004" y="1.67" class="f">youtube-dl-interactive</text><text x="25.05" y="1.67" class="f">https://www.youtube.com/watch?v=CjLHuh</text></svg><svg x="854"><use xlink:href="#a"/><use xlink:href="#b" x="64.996"/><text y="1.67" class="f">$</text><text x="2.004" y="1.67" class="f">youtube-dl-interactive</text><text x="25.05" y="1.67" class="f">https://www.youtube.com/watch?v=CjLHuhOT</text></svg><svg x="976"><use xlink:href="#a"/><use xlink:href="#b" x="67.996"/><use xlink:href="#1"/></svg><svg x="1098"><use xlink:href="#a"/><use xlink:href="#b" x="-.004" y="2.146"/><use xlink:href="#1"/></svg><svg x="1220"><use xlink:href="#a"/><use xlink:href="#1"/></svg><svg x="1342"><use xlink:href="#a"/><use xlink:href="#1"/><text y="3.841" class="i">⠋</text><text x="2.004" y="3.841" class="f">Loading</text><text x="10.02" y="3.841" class="f">formats</text></svg><svg x="1464"><use xlink:href="#a"/><use xlink:href="#1"/></svg><svg x="1586"><use xlink:href="#a"/><use xlink:href="#1"/></svg><svg x="1708"><use xlink:href="#a"/><use xlink:href="#b" x="-.004" y="2.146"/><use xlink:href="#1"/></svg><svg x="1830"><use xlink:href="#a"/><use xlink:href="#1"/></svg><svg x="1952"><use xlink:href="#a"/><use xlink:href="#1"/><use xlink:href="#2" y="2.171"/><use xlink:href="#3" y="4.342"/><use xlink:href="#4" y="6.513"/><use xlink:href="#5" y="8.684"/></svg><svg x="2074"><use xlink:href="#a"/><use xlink:href="#1"/><use xlink:href="#2" y="2.171"/><use xlink:href="#3" y="4.342"/><use xlink:href="#4" y="6.513"/><use xlink:href="#5" y="8.684"/></svg><svg x="2196"><use xlink:href="#a"/><use xlink:href="#1"/><use xlink:href="#2" y="2.171"/><use xlink:href="#3" y="4.342"/><use xlink:href="#4" y="6.513"/><use xlink:href="#5" y="8.684"/></svg><svg x="2318"><use xlink:href="#a"/><use xlink:href="#1"/></svg><svg x="2440"><use xlink:href="#a"/><use xlink:href="#1"/><use xlink:href="#6" y="2.171"/><use xlink:href="#7" y="4.342"/><use xlink:href="#8" y="6.513"/><use xlink:href="#5" y="8.684"/></svg><svg x="2562"><use xlink:href="#a"/><use xlink:href="#1"/></svg><svg x="2684"><use xlink:href="#a"/><use xlink:href="#1"/><use xlink:href="#6" y="2.171"/><use xlink:href="#7" y="4.342"/><use xlink:href="#4" y="6.513"/><text y="10.354" class="i">❯</text><text x="2.004" y="10.354" class="i">1280x720</text></svg><svg x="2806"><use xlink:href="#a"/><use xlink:href="#1"/></svg><svg x="2928"><use xlink:href="#a"/><use xlink:href="#1"/><use xlink:href="#6" y="2.171"/><use xlink:href="#7" y="4.342"/><use xlink:href="#8" y="6.513"/><use xlink:href="#5" y="8.684"/></svg><svg x="3050"><use xlink:href="#a"/><use xlink:href="#1"/><use xlink:href="#6" y="2.171"/><use xlink:href="#7" y="4.342"/><use xlink:href="#8" y="6.513"/><use xlink:href="#5" y="8.684"/></svg><svg x="3172"><use xlink:href="#a"/><use xlink:href="#1"/><use xlink:href="#6" y="2.171"/><use xlink:href="#7" y="4.342"/><use xlink:href="#8" y="6.513"/><use xlink:href="#5" y="8.684"/></svg><svg x="3294"><use xlink:href="#a"/><use xlink:href="#1"/></svg><svg x="3416"><use xlink:href="#a"/><use xlink:href="#1"/><use xlink:href="#9" y="2.171"/></svg><svg x="3538"><use xlink:href="#a"/><use xlink:href="#1"/><use xlink:href="#9" y="2.171"/></svg><svg x="3660"><use xlink:href="#a"/><use xlink:href="#b" x="-.004" y="4.317"/><use xlink:href="#1"/><use xlink:href="#9" y="2.171"/></svg><svg x="3782"><use xlink:href="#a"/><use xlink:href="#1"/><use xlink:href="#9" y="2.171"/></svg><svg x="3904"><use xlink:href="#a"/><use xlink:href="#1"/><use xlink:href="#9" y="2.171"/><use xlink:href="#10" y="4.342"/><use xlink:href="#11" y="6.513"/><use xlink:href="#12" y="8.684"/></svg><svg x="4026"><use xlink:href="#a"/><use xlink:href="#1"/><use xlink:href="#9" y="2.171"/><use xlink:href="#10" y="4.342"/><use xlink:href="#11" y="6.513"/><use xlink:href="#12" y="8.684"/></svg><svg x="4148"><use xlink:href="#a"/><use xlink:href="#1"/><use xlink:href="#9" y="2.171"/></svg><svg x="4270"><use xlink:href="#a"/><use xlink:href="#1"/><use xlink:href="#9" y="2.171"/><use xlink:href="#13" y="4.342"/><use xlink:href="#14" y="6.513"/><use xlink:href="#15" y="8.684"/></svg><svg x="4392"><use xlink:href="#a"/><use xlink:href="#1"/><use xlink:href="#9" y="2.171"/><use xlink:href="#13" y="4.342"/><use xlink:href="#14" y="6.513"/><use xlink:href="#15" y="8.684"/></svg><svg x="4514"><use xlink:href="#a"/><use xlink:href="#1"/><use xlink:href="#9" y="2.171"/><use xlink:href="#13" y="4.342"/><use xlink:href="#14" y="6.513"/><use xlink:href="#15" y="8.684"/></svg><svg x="4636"><use xlink:href="#a"/><use xlink:href="#1"/><use xlink:href="#9" y="2.171"/></svg><svg x="4758"><use xlink:href="#a"/><use xlink:href="#1"/><use xlink:href="#9" y="2.171"/><use xlink:href="#16" y="4.342"/></svg><svg x="4880"><use xlink:href="#a"/><use xlink:href="#b" x="-.004" y="6.488"/><use xlink:href="#1"/><use xlink:href="#9" y="2.171"/><use xlink:href="#16" y="4.342"/></svg><svg x="5002"><use xlink:href="#a"/><use xlink:href="#b" x="26.996" y="6.488"/><use xlink:href="#1"/><use xlink:href="#9" y="2.171"/><use xlink:href="#16" y="4.342"/><use xlink:href="#17" y="6.513"/></svg><svg x="5124"><use xlink:href="#a"/><use xlink:href="#b" x="-.004" y="6.488"/><use xlink:href="#1"/><use xlink:href="#9" y="2.171"/><use xlink:href="#16" y="4.342"/><use xlink:href="#17" y="6.513"/></svg><svg x="5246"><use xlink:href="#a"/><use xlink:href="#b" x="26.996" y="6.488"/><use xlink:href="#1"/><use xlink:href="#9" y="2.171"/><use xlink:href="#16" y="4.342"/><use xlink:href="#17" y="6.513"/></svg><svg x="5368"><use xlink:href="#a"/><use xlink:href="#b" x="-.004" y="6.488"/><use xlink:href="#1"/><use xlink:href="#9" y="2.171"/><use xlink:href="#16" y="4.342"/></svg><svg x="5490"><use xlink:href="#a"/><use xlink:href="#b" x="23.996" y="6.488"/><use xlink:href="#1"/><use xlink:href="#9" y="2.171"/><use xlink:href="#16" y="4.342"/><use xlink:href="#18" y="6.513"/></svg><svg x="5612"><use xlink:href="#a"/><use xlink:href="#b" x="-.004" y="8.659"/><use xlink:href="#1"/><use xlink:href="#9" y="2.171"/><use xlink:href="#16" y="4.342"/><use xlink:href="#18" y="6.513"/></svg><svg x="5734"><use xlink:href="#a"/><use xlink:href="#b" x="-.004" y="10.83"/><use xlink:href="#1"/><use xlink:href="#9" y="2.171"/><use xlink:href="#16" y="4.342"/><use xlink:href="#18" y="6.513"/><use xlink:href="#19" y="8.684"/></svg><svg x="5856"><use xlink:href="#a"/><use xlink:href="#b" x="-.004" y="13.001"/><use xlink:href="#1"/><use xlink:href="#9" y="2.171"/><use xlink:href="#16" y="4.342"/><use xlink:href="#18" y="6.513"/><use xlink:href="#19" y="8.684"/><use xlink:href="#20" y="10.855"/></svg><svg x="5978"><use xlink:href="#a"/><use xlink:href="#b" x="-.004" y="15.172"/><use xlink:href="#1"/><use xlink:href="#9" y="2.171"/><use xlink:href="#16" y="4.342"/><use xlink:href="#18" y="6.513"/><use xlink:href="#19" y="8.684"/><use xlink:href="#20" y="10.855"/><use xlink:href="#21" y="13.026"/></svg><svg x="6100"><use xlink:href="#a"/><use xlink:href="#b" x=".996" y="15.172"/><use xlink:href="#1"/><use xlink:href="#9" y="2.171"/><use xlink:href="#16" y="4.342"/><use xlink:href="#18" y="6.513"/><use xlink:href="#19" y="8.684"/><use xlink:href="#20" y="10.855"/><use xlink:href="#21" y="13.026"/></svg></svg></g></g></svg></svg>